<?xml version="1.0" standalone="no"?>
<!DOCTYPE svg PUBLIC "-//W3C//DTD SVG 20010904//EN"
 "http://www.w3.org/TR/2001/REC-SVG-20010904/DTD/svg10.dtd">
<svg version="1.0" xmlns="http://www.w3.org/2000/svg"
 width="512.000000pt" height="512.000000pt" viewBox="0 0 512.000000 512.000000"
 preserveAspectRatio="xMidYMid meet">

<g transform="translate(0.000000,512.000000) scale(0.100000,-0.100000)"
fill="#000000" stroke="none">
<path d="M2340 5109 c-1154 -107 -2086 -954 -2295 -2085 -84 -453 -41 -940
120 -1380 45 -123 168 -374 231 -474 358 -563 891 -964 1512 -1139 128 -37
158 -35 197 11 l25 30 0 348 c0 249 -3 357 -12 375 -21 46 -54 55 -205 55
-225 0 -318 36 -464 180 -78 76 -293 349 -283 359 5 5 107 -63 237 -157 167
-121 274 -162 422 -162 131 0 220 53 274 162 29 56 31 69 31 164 0 133 -6 141
-155 193 -336 116 -579 293 -743 540 -109 164 -162 337 -162 531 0 248 89 479
261 672 33 36 62 80 65 96 4 19 -3 54 -21 103 -36 98 -45 235 -21 329 20 78
61 170 75 170 21 0 123 -50 190 -94 38 -24 103 -77 144 -116 91 -86 113 -94
192 -69 233 74 363 94 605 94 242 0 372 -20 605 -94 79 -25 101 -17 192 69
100 95 280 210 331 210 17 0 56 -87 78 -170 24 -94 15 -231 -21 -329 -18 -49
-25 -84 -21 -103 3 -16 32 -60 65 -96 110 -125 179 -250 228 -412 19 -65 26
-116 30 -217 8 -190 -18 -307 -103 -473 -165 -320 -522 -577 -962 -690 -31 -8
-48 -20 -62 -43 -27 -43 -25 -69 10 -158 56 -144 60 -200 60 -760 l0 -507 25
-30 c40 -47 69 -48 209 -8 879 257 1559 948 1801 1831 217 792 51 1626 -454
2275 -94 122 -279 309 -401 407 -521 418 -1186 622 -1830 562z m550 -224 c671
-99 1256 -472 1634 -1040 37 -55 98 -163 136 -240 172 -352 244 -657 244
-1045 0 -283 -33 -494 -115 -750 -226 -701 -780 -1275 -1472 -1525 -54 -19
-102 -35 -107 -35 -5 0 -10 208 -13 467 -3 391 -7 479 -21 533 -32 130 -40
112 64 149 309 111 599 316 776 550 84 110 176 297 209 424 93 352 4 755 -232
1044 l-43 52 20 83 c51 212 6 447 -121 627 -58 84 -86 96 -164 74 -137 -40
-296 -126 -418 -228 l-74 -63 -84 24 c-189 55 -296 68 -549 68 -253 0 -360
-13 -549 -68 l-84 -24 -71 60 c-167 140 -419 259 -503 236 -65 -17 -176 -213
-209 -367 -20 -96 -18 -240 6 -339 l20 -82 -51 -63 c-251 -311 -329 -753 -197
-1125 96 -272 285 -506 553 -684 110 -72 253 -145 363 -184 76 -27 82 -31 82
-57 0 -17 -10 -38 -26 -54 -24 -24 -30 -25 -97 -21 -94 6 -146 32 -322 158
-238 171 -415 244 -629 259 -123 9 -161 0 -186 -42 -40 -65 -11 -138 62 -157
106 -27 143 -62 321 -307 204 -280 315 -393 467 -472 105 -55 168 -71 298 -78
l112 -6 0 -195 0 -194 -27 7 c-109 27 -372 148 -527 242 -505 307 -894 816
-1056 1380 -70 246 -94 421 -94 688 0 383 79 715 249 1050 369 728 1071 1205
1888 1285 123 12 408 4 537 -15z"/>
</g>
</svg>
