<?xml version="1.0" standalone="no"?>
<!DOCTYPE svg PUBLIC "-//W3C//DTD SVG 20010904//EN"
 "http://www.w3.org/TR/2001/REC-SVG-20010904/DTD/svg10.dtd">
<svg version="1.0" xmlns="http://www.w3.org/2000/svg"
 width="512.000000pt" height="512.000000pt" viewBox="0 0 512.000000 512.000000"
 preserveAspectRatio="xMidYMid meet">

<g transform="translate(0.000000,512.000000) scale(0.100000,-0.100000)"
fill="#000000" stroke="none">
<path d="M1388 4900 c-579 -46 -1046 -470 -1155 -1050 -17 -88 -18 -185 -18
-1290 0 -1105 1 -1202 18 -1290 101 -535 502 -936 1037 -1037 88 -17 185 -18
1290 -18 1105 0 1202 1 1290 18 535 101 936 502 1037 1037 17 88 18 185 18
1290 0 1105 -1 1202 -18 1290 -100 531 -495 929 -1027 1036 -77 15 -198 17
-1230 19 -630 2 -1189 -1 -1242 -5z m2526 -242 c301 -91 532 -283 666 -553 27
-55 62 -140 77 -190 l28 -90 0 -1265 0 -1265 -28 -90 c-73 -235 -204 -427
-386 -566 -84 -64 -262 -150 -371 -181 l-85 -23 -1260 0 -1260 0 -90 28 c-369
113 -627 371 -742 742 l-28 90 0 1265 0 1265 28 90 c92 299 276 524 537 659
89 46 218 91 304 105 28 5 607 8 1286 7 l1235 -1 89 -27z"/>
<path d="M3739 4237 c-144 -76 -144 -293 0 -366 85 -43 170 -34 239 25 109 93
89 274 -37 341 -60 31 -142 31 -202 0z"/>
<path d="M2410 3830 c-293 -35 -567 -173 -776 -391 -429 -450 -470 -1145 -95
-1646 457 -612 1354 -684 1904 -154 142 137 236 277 306 456 62 157 84 281 84
465 0 184 -22 308 -84 465 -70 179 -164 319 -306 456 -274 264 -656 393 -1033
349z m401 -234 c209 -53 366 -144 514 -297 143 -148 226 -299 277 -507 31
-123 31 -341 0 -464 -51 -208 -134 -359 -277 -507 -147 -153 -301 -242 -514
-298 -83 -22 -117 -26 -251 -26 -134 0 -168 4 -251 26 -213 56 -367 145 -514
298 -143 148 -226 299 -277 507 -31 123 -31 341 0 464 51 208 134 359 276 506
172 178 387 288 626 322 105 14 283 4 391 -24z"/>
</g>
</svg>
