<?xml version="1.0" standalone="no"?>
<!DOCTYPE svg PUBLIC "-//W3C//DTD SVG 20010904//EN"
 "http://www.w3.org/TR/2001/REC-SVG-20010904/DTD/svg10.dtd">
<svg version="1.0" xmlns="http://www.w3.org/2000/svg"
 width="512.000000pt" height="512.000000pt" viewBox="0 0 512.000000 512.000000"
 preserveAspectRatio="xMidYMid meet">

<g transform="translate(0.000000,512.000000) scale(0.100000,-0.100000)"
fill="#000000" stroke="none">
<path d="M575 4899 c-188 -28 -331 -180 -355 -379 -7 -56 -10 -744 -8 -2020 3
-1825 4 -1938 21 -1987 28 -84 94 -171 165 -220 125 -85 -74 -78 2162 -78
2236 0 2037 -7 2162 78 73 50 139 140 165 225 17 54 18 173 18 2042 0 2236 7
2037 -78 2162 -49 71 -136 137 -220 165 -49 17 -159 18 -2012 19 -1083 1
-1987 -2 -2020 -7z m4006 -232 c24 -13 58 -43 74 -66 l30 -43 0 -1998 0 -1998
-30 -43 c-16 -23 -50 -53 -74 -66 l-44 -23 -1977 0 -1977 0 -44 23 c-24 13
-57 43 -74 66 l-30 43 0 1998 0 1998 30 43 c17 23 50 53 74 66 l44 23 1977 0
1977 0 44 -23z"/>
<path d="M1215 4258 c-131 -17 -255 -110 -317 -235 -32 -65 -33 -72 -33 -183
0 -111 1 -118 33 -183 157 -318 607 -318 763 -1 29 58 34 80 37 159 5 115 -12
181 -71 267 -90 132 -246 198 -412 176z m186 -243 c64 -45 91 -104 87 -187 -4
-82 -39 -139 -108 -176 -38 -20 -56 -23 -112 -20 -82 4 -139 39 -176 108 -20
38 -23 56 -20 112 4 82 39 139 108 176 38 20 56 23 112 20 55 -3 75 -9 109
-33z"/>
<path d="M903 3180 c-22 -13 -35 -31 -43 -59 -7 -27 -10 -374 -8 -1120 l3
-1081 33 -32 32 -33 360 0 360 0 32 33 33 32 3 1081 c2 746 -1 1093 -8 1120
-8 28 -21 46 -43 59 -30 19 -53 20 -377 20 -324 0 -347 -1 -377 -20z m587
-1150 l0 -960 -210 0 -210 0 0 960 0 960 210 0 210 0 0 -960z"/>
<path d="M1978 3185 c-61 -34 -58 28 -58 -1162 0 -1060 1 -1089 20 -1120 13
-21 31 -35 57 -42 50 -14 645 -14 695 -1 20 6 46 22 58 37 20 25 20 36 20 657
1 682 4 736 53 833 36 71 67 105 129 138 48 27 62 30 143 30 106 0 147 -17
212 -88 46 -50 53 -62 79 -132 18 -46 19 -99 24 -732 l5 -683 33 -32 32 -33
360 0 360 0 32 33 33 32 3 563 c4 762 -7 918 -82 1118 -53 142 -111 233 -211
334 -127 127 -270 205 -445 242 -125 26 -347 24 -455 -6 -79 -21 -209 -79
-272 -121 l-33 -22 0 51 c0 42 -5 56 -29 83 l-29 33 -354 2 c-299 2 -357 0
-380 -12z m584 -326 l3 -131 33 -29 c58 -52 115 -37 182 47 80 101 226 192
360 225 84 21 287 16 383 -10 222 -59 392 -220 471 -447 54 -153 56 -188 56
-840 l0 -604 -209 0 -209 0 -4 598 c-5 574 -6 600 -26 677 -73 268 -260 425
-507 425 -246 0 -434 -154 -507 -417 -22 -76 -22 -97 -26 -680 l-3 -603 -215
0 -214 0 0 960 0 960 214 0 214 0 4 -131z"/>
</g>
</svg>
